<?xml version="1.0" encoding="utf-8"?>
<!-- Generator: Adobe Illustrator 21.0.0, SVG Export Plug-In . SVG Version: 6.00 Build 0)  -->
<svg version="1.1" id="Calque_1" xmlns="http://www.w3.org/2000/svg" xmlns:xlink="http://www.w3.org/1999/xlink" x="0px" y="0px"
	 viewBox="0 0 291 255" style="enable-background:new 0 0 291 255;" xml:space="preserve">
<style type="text/css">
	.st0{fill:#4A8D7F;}
	.st1{fill:none;stroke:#494949;stroke-width:8.7988;stroke-linecap:round;stroke-miterlimit:10;}
	.st2{fill:#494949;}
	.st3{opacity:0.1;fill:url(#SVGID_1_);enable-background:new    ;}
</style>
<g>
	<g>
		<g>
			<rect x="76.9" y="176" class="st0" width="25.2" height="21.5"/>
			<rect x="106.3" y="154.5" class="st0" width="25.2" height="43"/>
			<rect x="135.6" y="123.8" class="st0" width="25.2" height="73.7"/>
			<rect x="165" y="93.2" class="st0" width="25.2" height="104.3"/>
			<rect x="194.4" y="62.5" class="st0" width="25.2" height="135"/>
		</g>
		<g>
			<g>
				<path class="st1" d="M201.7,33.4C182.5,62.6,137.2,124.5,76.9,160"/>
				<g>
					<polygon class="st2" points="188.4,29.5 211.7,17.3 210.6,43.6 					"/>
				</g>
			</g>
		</g>
	</g>
	<g>
		<polygon class="st2" points="68.6,206.3 68.6,44.3 65,44.3 65,206.3 65,209.9 68.6,209.9 230.6,209.9 230.6,206.3 		"/>
		<g>
			<rect x="81.4" y="206.4" class="st2" width="3.6" height="9.3"/>
			<rect x="124.5" y="206.4" class="st2" width="3.6" height="9.3"/>
			<rect x="167.6" y="206.4" class="st2" width="3.6" height="9.3"/>
			<rect x="210.7" y="206.4" class="st2" width="3.6" height="9.3"/>
		</g>
		<g>
			<rect x="58.8" y="60.7" class="st2" width="9.3" height="3.6"/>
			<rect x="58.8" y="103.8" class="st2" width="9.3" height="3.6"/>
			<rect x="58.8" y="146.8" class="st2" width="9.3" height="3.6"/>
			<rect x="58.8" y="189.9" class="st2" width="9.3" height="3.6"/>
		</g>
	</g>
</g>
<radialGradient id="SVGID_1_" cx="145.5" cy="-182.4214" r="93.2242" gradientTransform="matrix(1 0 0 -6.957300e-02 0 221.2455)" gradientUnits="userSpaceOnUse">
	<stop  offset="0" style="stop-color:#000100"/>
	<stop  offset="1" style="stop-color:#000100;stop-opacity:0"/>
</radialGradient>
<ellipse class="st3" cx="145.5" cy="234" rx="94.4" ry="6.2"/>
</svg>
