<?xml version="1.0" encoding="utf-8"?>
<!-- Generator: Adobe Illustrator 21.0.0, SVG Export Plug-In . SVG Version: 6.00 Build 0)  -->
<svg version="1.1" id="Calque_1" xmlns="http://www.w3.org/2000/svg" xmlns:xlink="http://www.w3.org/1999/xlink" x="0px" y="0px"
	 viewBox="0 0 291 255" style="enable-background:new 0 0 291 255;" xml:space="preserve">
<style type="text/css">
	.st0{fill:#4A8D7F;}
	.st1{fill:#AFE13A;}
	.st2{opacity:0.2;}
	.st3{fill:#24BCB1;}
	.st4{fill:none;}
	.st5{fill:#C4C4C4;}
	.st6{fill:#DDDDDD;}
</style>
<g>
	<g>
		<g>
			<circle class="st0" cx="149.9" cy="129" r="86.9"/>
			<g>
				<g>
					<g>
						<g>
							<path class="st1" d="M64.8,124.4c0.9,0.9,1.4,1.8,1.5,2.9c0.1,0.8,0.3,1.6,0.6,2.4c0.4,1,1,1.3,2.1,1
								c2.1-0.7,4.3-1.3,6.4-2.1c2.6-0.9,5.2-1.8,6.8-4c0.5-0.6,0.6-1.3,1.2-1.8c0.9-0.8,0.4-1.3-0.5-1.8c-1-0.6-2-1.3-2.4-2.3
								c-0.3-0.9-0.5-0.9-1-0.3c-0.7,0.8-1.8,1.1-2.9,1.3c-0.5,0.1-1.2,0.2-1.5-0.5c-1-1.9-1.9-3.8-3.1-5.6c-0.3-0.5-0.9-1-0.2-1.5
								c0.7-0.5,1.5-0.3,2.2,0.2c0.4,0.3,0.7,0.7,0.9,1.1c1.2,1.9,2.9,3,5.3,2.8c0.6,0,0.9,0.1,1.2,0.5c0.5,0.9,1.2,1.2,2.3,1.4
								c1.1,0.2,2.1,0.3,3.2,0.5c1.4,0.3,3.1,0,4.2,0.9c1.2,0.9,2.3,1.9,3.8,2.5c0.4,0.1,0.9,0.5,0.2,0.8c-0.7,0.3-0.6,0.6-0.1,1
								c0.6,0.4,1.1,0.4,1.5-0.1c0.2-0.3,0.2-0.8,0.6-0.7c0.5,0.1,0.5,0.7,0.6,1.1c0.1,0.6,0.1,1.2,0.1,1.8c0,1.1,0.1,2.1,0.5,3.2
								c1.1,2.9,2.3,5.7,3.9,8.4c0.4,0.6,0.8,1.2,1.2,1.8c0.2-0.1,0.3-0.2,0.3-0.3c1.4-1.8,1.7-4.1,1.6-6.3c0-0.9,0.3-1.6,1.2-2.1
								c2.2-1.4,4.2-3,5.8-4.9c0.6-0.7,1.3-1,2.2-1c0.8,0,1.5-0.2,2.1-0.6c0.3-0.2,0.7-0.4,1,0c1.2,2,3.7,3.5,3.2,6.2
								c-0.1,0.4-0.1,0.9,0.4,1.1c0.5,0.2,0.9,0,1.3-0.3c0.2-0.1,0.4-0.3,0.6-0.4c0.6-0.5,0.9-0.3,1.1,0.4c0.4,1.5,0.8,3,1.2,4.6
								c0.2,0.8,0.2,1.5,0.1,2.3c-0.2,1.3-0.2,2.7,0.8,3.9c0.5,0.5,0.6,1.1,0.8,1.8c0.5,1.6,1.3,3,2.6,4.2c0.3,0.2,0.6,0.6,0.9,0.4
								c0.3-0.2,0-0.6,0-0.8c-0.1-3-2.9-4.9-4.3-7.4c-0.3-0.6-0.6-1-0.4-1.6c0.1-0.6,0.4-1.2,0.6-1.8s0.4-1,1.2-0.9
								c0.9,0.1,2.2,0,2.4,0.7c0.4,1.5,2.4,2.2,2,4.2c1.4-1,2.4-1.8,3.5-2.6c0.6-0.4,0.8-0.9,0.8-1.7c-0.1-2.2-0.7-4.2-2.3-6.1
								c-1.9-2.3-1.8-2.4,0.6-4.2c0,0,0.1,0,0.1-0.1c0.5-0.4,1-0.5,1.6-0.1c0.2,0.2,0.4,0.6,0.9,0.2c1.3-1,3-1.4,4.6-1.7
								c1.2-0.2,2.1-0.7,3-1.3c2.2-1.6,3.1-4,4.7-5.9c0.2-0.3,0.3-0.9,0-1.1c-1.2-0.5-0.6-1,0-1.4c-0.3-0.5-1.8-0.4-0.7-1.1
								c0.8-0.6,0.5-1,0.2-1.5c-0.3-0.4-0.6-0.9-0.9-1.2c-0.8-0.9-0.5-1.7,0.3-2.5c0.6-0.6,1.4-1,2.5-1.5c-1.6-0.1-2.9,0.2-4.2-0.4
								c-1-0.5-1.3-1.1-0.6-1.8c0.9-0.9,2.1-1.6,3.4-2.1c0.3-0.1,0.7-0.2,0.9,0.1c0.2,0.3,0,0.6-0.1,0.9c-0.2,0.4-0.8,0.7-0.5,1.3
								c0.5-0.1,0.5-0.6,0.8-0.8c0.8-0.7,1.7-0.4,2.6-0.1c0.8,0.3,0.8,0.8,0.5,1.4c-0.1,0.3-0.1,0.7,0.2,0.8c1.5,0.7,1.4,1.9,1.3,3
								c0,0.3-0.1,0.7,0.6,0.7c1.3-0.1,2.2-1.1,1.8-2.2c-0.4-1-0.9-2-1.3-3.1c-0.1-0.4-0.4-0.7,0-1.2c1.4-1.3,2.7-2.7,4.1-4.1
								c0.3-0.3,0.6-0.5,1-0.3c1.3,0.7,2-0.1,2.8-0.8c1.5-1.4,2.7-3,3.7-4.6c1.4-2.3,2.1-4.9,1.8-7.6c-0.2-1.4-0.9-1.9-2.3-1.4
								c-0.6,0.2-1.2,0.4-1.8-0.2c-0.3-0.2-0.5-0.5-0.9-0.6c-1.2-0.3-0.8-0.9-0.3-1.4c2-2.1,4.2-4,6.6-5.6c0.7-0.5,1.6-0.9,2.5-0.5
								c1.5,0.6,2.9,0.2,4.2-0.2c0.5-0.2,0.9-0.2,1.4,0c0.8,0.4,1.7,0.4,2.6,0.5c0.6,0.1,0.9-0.1,1.1-0.7c0.6-1.6,3.4-3.6,5-3.5
								c0.7,0,1.4,0.1,0.8,1c-0.2,0.2-0.4,0.6,0,0.9c0.3,0.1,0.4-0.1,0.5-0.2c0.8-0.8,2.1-1.2,2.4-2.5c0.1-0.3,0.5-0.6,1-0.4
								c0.4,0.2,0.3,0.6,0.2,0.9c-0.2,0.6-0.5,1.3-1.1,1.7c-1.4,0.8-2.4,2-3.4,3.1c-0.5,0.5-1,1.1-1.6,1.5c-1.2,0.6-1.7,1.6-1.7,2.8
								c-0.1,2,0.2,4,1.1,5.9c0.2,0.3,0.4,0.5,0.6,0.2c0.6-1.3,2.3-1.7,2.4-3.3c0.1-0.7,0.6-1.3,1.5-1.4c0.4-0.1,0.5-0.2,0.4-0.6
								c-0.2-0.8-0.1-1.6,0.9-1.9c0.3-0.1,0.3-0.3,0.2-0.4c-0.6-0.5-0.5-1.2-0.7-1.8c-0.6-1.4,0.2-2.6,1.7-3
								c0.4-0.1,0.6-0.3,0.9-0.5c1.2-0.7,2.5-1.2,3.8-0.7c1.1,0.4,1.6,0.3,2.3-0.3c0.5-0.4,1-0.8,1.5-1.1c1.3-0.7,2.6-1.6,4.2-1.7
								c0.5,0,1.1,0.4,1.4-0.1c0.3-0.5-0.3-1-0.6-1.4c-0.4-0.6-0.8-1.1-1.6-1.2c-0.5-0.1-1.1-0.4-1-1c0.1-0.5,0.7-0.3,1.2-0.2
								c2,0.4,2.1,0.3,2.2-1.5c0-0.3,0-0.5,0.3-0.6s0.5,0.2,0.7,0.4c0.3,0.6,0.6,0.7,1,0.6c-2.3-2.2-4.7-4.2-7.3-6.1
								c-1.8-0.2-3.6-0.3-5.4-0.5c0.1,0.3,0.2,0.5,0.2,0.6c0.1,0.5,0.5,1.1,0,1.5s-1,0-1.6-0.2c-0.7-0.3-1.4-0.4-2.2-0.5
								c-1.6-0.2-3.1,0.1-4.6,0c-1,0-1.9-0.2-2.3-1.3c-0.2-0.6-0.8-0.8-1.3-0.8c-1.2,0-2.5-0.1-3.6,0.2c-1.6,0.5-2.9-0.6-4.3-0.9
								c-0.1,0-0.3-0.3-0.4-0.4c-0.7-1.1-1.2-1.2-2.3-0.7c-0.4,0.2-0.8,0.5-1.3,0.7c-0.2,0.1-0.5,0.4-0.8,0.1
								c-0.2-0.2,0-0.5,0.2-0.7c0.4-0.5,0.2-0.7-0.4-0.7c-1.2,0-2.4,0.1-3.6-0.1c-0.4-0.1-0.9,0-0.9,0.6c0.1,1.2-0.4,1.9-1.7,1.8
								c-1.6-0.1-3.1-0.2-4.7-0.2c-0.6,0-0.9-0.1-1.1,0.5c-0.2,0.6-0.6,1-1.3,0.7c-1.4-0.6-2.5-1.5-3.5-2.7
								c-0.3-0.3-0.4-0.7,0.2-0.8c0.3-0.1,0.7,0,0.7-0.5c-0.1-0.4-0.4-0.7-0.8-0.7c-1.4-0.1-2.8-0.4-4.1,0.3c-1.4,0.7-3,0.8-4.2,0
								c-1.3-0.8-2.5-0.9-3.7-0.5c-1.4,0.5-1.8-0.2-2.1-1.2c-0.2-0.7-0.6-0.9-1.2-0.8c-0.3,0-0.7-0.1-0.9,0.2c0,0,0,0,0,0.1
								c-0.2,0-0.4,0-0.3,0.3c0.1,0.2,0.2,0.2,0.4,0.2l0.1,0.1c0,0,0.1,0,0.1,0.1h-0.1c-0.1,0-0.1,0-0.2,0c-0.1,0-0.2,0-0.3,0
								c-0.3,0.1-0.3,0.2-0.2,0.4l0,0c0,0.2,0.3,0.5,0,0.7c-0.6,0.5-2.7,0.8-3.5,0.3c1.8-0.8,3.2-2.2,5-2.7c1.5-0.3,1.2-1.5,1.5-2.6
								c-0.3,0-0.5,0.1-0.8,0c-1-0.8-2.1-0.7-3.2-0.4c-1.5,0.4-2.8-0.3-3.9-0.9c-0.2-0.6,1.1-0.5,0.4-1.1c-0.6-0.5-1.4-0.4-1.9,0.2
								c-0.5,0.5-1.4,0.9-0.9,2c0.3,0.6-0.1,0.8-0.6,0.7c-2-0.4-3.9,0.7-6,0.5c-2.3-0.3-4.9,0.6-7.3,1.1c-1.4,0.3-1.4,0.5-0.7,1.7
								c0.2,0.3,0.3,0.6,0.1,0.9c-0.3,0.4-0.6,0.1-0.8,0c-1.3-0.3-2.6-0.3-3.9-0.4c-0.5,0-1-0.1-1.2,0.6c-0.1,0.6,0.1,0.9,0.6,1.1
								c1.2,0.5,1.8,1.5,1.8,2.8c0,0.4-0.2,0.9-0.7,0.9c-0.5,0.1-0.9-0.3-0.8-0.8c0.4-1.6-0.9-1.8-1.9-2.3s-2.1,0.2-3.1-0.3
								c0.2,0.8,0.8,1,1.2,1.5c0.1,0.2,0.3,0.3,0.2,0.5c-0.1,0.3-0.4,0.3-0.6,0.2c-0.3-0.1-0.6-0.2-0.8-0.3
								c-1.1-0.5-1.4-1.5-1.6-2.6c-1.3,1.6-1.2,1.6-1.3,3.5c0,1,0.3,1.3,1.2,1.5c1.4,0.3,2.3,1,2.5,2.5c0.1,0.4,0.2,0.6,0.5,0.9
								c0.2,0.2,0.5,0.3,0.2,0.6c-0.2,0.3-0.5,0.3-0.9,0.2c-0.9-0.3-1.1-0.9-1.2-1.7c-0.1-0.6-0.4-1.1-1-1.2c-0.7-0.1-1,0.4-1.3,0.9
								c-0.6,0.9-1.2,1.8-2.1,2.5c-1.4,1.1-2.1,1.1-3.4,0c-0.2-0.2-0.7-0.4-0.4-0.8c0.2-0.4,0.6-0.2,1-0.2c0.2,0,0.5,0.1,0.6,0.2
								c0.8,1,1.3,0.2,1.6-0.5c1-2,1.4-4,1.1-6.1c-0.1-0.4-0.1-0.7,0.1-1.1c-22,14.4-37.1,38.5-39.1,66.3
								C63.7,123.1,64.2,123.8,64.8,124.4z M98.1,59.2c0.1,0.1,0.1,0.2,0.2,0.3c0.4,0.5,1,1,0.4,1.6c-0.6,0.7-1.3,0.3-1.8-0.2
								c-0.1-0.1-0.2-0.2-0.4-0.3c-0.1,0-0.1-0.1-0.2-0.1C96.9,60,97.5,59.6,98.1,59.2z M84.2,95.2c0-0.7,1-1.7,1.5-1.5
								c0.5,0.1,0.3,0.5,0.4,0.8c-0.2,0.7-0.3,1.5-1.3,1.5C84.2,96,84.1,95.6,84.2,95.2z M73.3,92.9c1.1-0.8,2.5-1,3.9-1.1
								c0.6,0,0.9,0.3,0.9,0.9c0,0.5-0.2,0.7-0.8,0.7c-1.4,0.1-2.1,1.6-1.2,2.7c0.5,0.6,0.9,1.2,0.9,2c0,0.6,0.2,1,0.9,0.4
								c0.2-0.1,0.4-0.4,0.6-0.1c0.3,0.2,0.5,0.5,0.5,0.8c0,0.4-0.4,0.3-0.6,0.3c-1,0-1.3,0.2-0.5,1c0.8,0.9,0.6,2.1,0.4,3.1
								c-0.2,0.9-1.4,0.5-2.1,0.6c-2-0.2-3-1.6-2.3-3.1c0.5-1.1,1-2-0.1-3.2c-0.8-1-1-2.4-1.1-3.6C72.5,93.8,72.7,93.3,73.3,92.9z"
								/>
						</g>
					</g>
					<g>
						<path class="st1" d="M169.8,98.7c-0.4,0.1-0.5,0.5-0.4,0.9c0,0.6,0.3,1.1,0.8,1.4c0.7,0.4,0.7-0.3,0.9-0.6
							c0.1-0.1,0.4-0.1,0.6-0.1c1.3-0.1,2.1-1.1,3.2-1.6c0.3-0.2,0.4-0.6,0.3-0.9c0-0.3-0.3-0.4-0.6-0.3c-1.1,0.2-1.7-0.4-2.4-0.9
							c-0.3-0.2-0.5-0.6-0.9-0.5c-0.4,0.2-0.5,0.6-0.4,1C170.9,97.8,170.8,98.5,169.8,98.7z"/>
					</g>
					<g>
						<path class="st1" d="M172.1,83.2c-1,2.1-1.4,4-0.3,5.9c0.2,0.3,0.1,0.7,0.1,1.1c0,1.3,0.1,2.6,0.1,3.9c0,0.3,0.1,0.5,0.4,0.6
							c0.3,0.1,0.5,0,0.7-0.2s0.2-0.5,0-0.6c-1-0.8-0.6-1.8-0.7-2.8l0,0c0.5-0.5,1,0.1,1.6,0c-0.9-1.2-1.2-2.5-1.6-3.9
							C172.1,86,172.5,84.6,172.1,83.2z"/>
					</g>
					<g>
						<path class="st1" d="M166.8,106.9c-1.1-0.5-1.2,0.2-1.6,0.7c-0.4,0.5-1,0.7-1.6,0.8c-1.4,0.2-2.7,0.6-3.6,1.7
							c-0.3,0.3-0.6,0.5-1.1,0.4c-0.3-0.1-0.5-0.6-0.8-0.2c-0.2,0.3,0.1,0.6,0.3,0.9c0.3,0.6,1,1.2,0.8,2c-0.2,0.6-0.1,1.2,0.5,1.3
							c0.7,0.2,0.8-0.5,1.1-0.9c0.2-0.4,0.4-0.8,0.6-1.1c0.2-0.3,0.5-0.6,1-0.6c0.7,0,1.5-0.2,1.6-0.9c0.1-0.6-0.9-0.4-1.2-0.9
							c0.9-0.2,1.5,0.1,1.9,0.7c0.2,0.3,0.5,0.7,0.9,0.4c0.9-1.1,2.3-1.1,3.6-1.2c0.8-0.1,1.1-0.4,1.2-1c0.4-1.5,0.7-3,1.4-4.4
							c0.3-0.6,0.2-1.3-0.1-1.9c-0.2-0.5-0.7-0.9-1.4-0.8s-0.9,0.6-1,1.1c-0.1,0.6-0.2,1.1-0.3,1.7c-0.1,0.5-0.2,0.9-0.9,0.6
							c-0.2-0.1-0.5-0.3-0.7,0c-0.3,0.3,0.1,0.5,0.2,0.7C167.9,106.6,167.3,107.2,166.8,106.9z"/>
					</g>
					<g>
						<path class="st1" d="M141.6,176c-1.1,0.7-1.1,1.5-0.1,3.2c0.3,0.5,0.6,1.1,0,1.5c-0.4,0.3-0.5-0.5-0.8-0.6c-0.1,0-0.1,0-0.2,0
							c0,0.4,0.2,0.8,0.4,1.2c1.5,2.4,1.9,5.2,2,8c0,0.7,0.1,1.2,0.7,1.6c0.7,0.4,1.3,0.6,1.9,0.1c0.3-0.3,0.7-0.6,1.1-0.8
							c1.8-0.8,3.8-1.1,5.6-2.5c0.6-0.5,1.6-0.3,2.4-0.6c2.1-0.7,3.7,0,4.9,1.5c0.4,0.5,0.4,1.5,0.9,1.5c0.7-0.1,0.8-1.1,1.3-1.7
							c0.2-0.3,0.4-0.6,0.8-0.4c0.3,0.2,0.3,0.5,0.1,0.9c-0.2,0.5-0.5,1.1-0.7,1.7c0.5-0.1,1.2-0.7,1.2-0.1c0,1.2,0.7,1.9,1,2.9
							c0.4,1.5,1.4,1.8,2.9,1c0.4-0.2,0.8-0.4,0.9-0.1c0.7,1.3,1.4,0.6,2.3-0.4c0.1-0.1,0.3-0.3,0.4-0.3c1.5-0.2,1.9-1.5,2.5-2.7
							c0.3-0.7,0.6-1.4,1.1-2.1c2.1-3.3,3-6.7,3.9-10.2c0.2-0.7,0.1-1.1-0.6-1.3c-0.8-0.3-1.3-0.9-1.7-1.6c-0.5-1-0.8-2.1-1.7-2.7
							c-1.4-1-1.8-2.4-1.8-4.1c0-1.1,0-2.2-0.8-3.1c-0.4-0.5-0.6-1.1-0.7-1.8c-0.1-0.4,0-0.9-0.5-1.3c-0.8,0.9-1.1,1.9-1.3,2.9
							c-0.3,1.6-1,3.1-1.9,4.6c-0.3,0.5-0.6,0.7-1.1,0.3c-0.9-0.7-1.7-1.4-2.7-2c-0.9-0.5-0.9-1.3-0.6-2.3c0.2-0.5,0.4-1,0.8-1.5
							c0.3-0.4,0.4-0.7-0.2-1c-1-0.5-2.2-0.4-3.2-0.7c-0.2-0.1-0.4,0.1-0.4,0.3c-0.2,0.6-0.8,0.8-1.1,1.2c-0.5,0.7-1.5,1.4-1.3,2.3
							c0.2,0.9-0.1,1-0.8,1c-0.5,0-1-0.1-1.5-0.2c-0.8-0.1-1.1-1.3-1.8-0.9c-0.6,0.3-0.9,1.2-1.6,1.6c-0.3,0.1-0.5,0.4-0.5,0.7
							c0,0.4,0.1,0.9-0.4,1.1c-0.5,0.2-0.6-0.5-1.1-0.7c-0.4,0.9,0.1,1.8-0.7,2.5s-1.5,1.4-2.6,1.7
							C144.5,174.1,143.1,175.1,141.6,176z"/>
					</g>
					<g>
						<path class="st1" d="M148.2,159.9c-0.3,0-0.7,0.1-0.7,0.5c0,0.5,0.4,0.6,0.8,0.6c0.3,0,0.7-0.1,0.8-0.6
							C149,160,148.6,159.9,148.2,159.9z"/>
					</g>
					<g>
						<path class="st1" d="M158.2,159.2c0,0.3,0.2,0.5,0.6,0.5c0.3,0,0.5-0.3,0.6-0.6c-0.1-0.4-0.3-0.4-0.7-0.4
							C158.4,158.7,158.2,158.9,158.2,159.2z"/>
					</g>
					<g>
						<path class="st1" d="M174.2,155.9c-2.2-1.3-4.7-2.4-7.3-3.1c-0.9-0.3-1.4-0.2-2.1,0.5c-1,1-2.1,0.7-2.4-0.5
							c-0.3-1.3-1.1-1.7-2.7-1.3c0.2,0.4,0.6,0.6,1,0.7c0.7,0.2,1.3,0.4,0.4,1.2c-0.4,0.3-0.4,1,0.2,0.9c1.8-0.4,2.9,0.6,4.1,1.4
							c1.6,1,1.7,1.6,0.2,3.4c0.8-0.4,1.3-0.1,1.7,0c0.8,0.3,1.6,0.6,2.5,0.8c0.5,0.1,0.9,0.1,1.4-0.4c1.2-1.4,2.9-1.5,3.5,0.1
							c0.5,1.4,1.7,1.3,3,1.3c-0.3-0.5-0.7-0.8-1.2-1.2s-0.9-1-0.9-1.7C175.6,156.9,175,156.4,174.2,155.9z"/>
					</g>
					<g>
						<path class="st1" d="M178,156.4c0.5,0,2.3-1.6,2.4-2.2c0-0.3-0.2-0.5-0.6-0.2c-0.7,0.4-1.4,0.8-2.1,1.2
							c-0.4,0.2-0.5,0.6-0.4,0.9C177.5,156.3,177.7,156.4,178,156.4z"/>
					</g>
					<g>
						<path class="st1" d="M153.3,140.6c-0.5,0.2-1,0.6-1.4,0.5c-1.2-0.2-1.4,0.5-1.7,1.4c1.1-0.4,1.8-0.9,2.2,0.5
							c0.2,0.8,1,0.5,1.5,0.1c0.6-0.5,0.8-1.2,0.7-1.9C154.4,140.5,154.1,140.2,153.3,140.6z"/>
					</g>
					<g>
						<path class="st1" d="M154.4,152.6c-0.2,0-0.4,0.2-0.4,0.4s0.1,0.4,0.3,0.4s0.4-0.2,0.4-0.4
							C154.7,152.7,154.6,152.6,154.4,152.6z"/>
					</g>
					<g>
						<path class="st1" d="M157.1,153.5c-0.4,0-1.1,0-1.1,0.6c0,0.5,0.6,0.4,1,0.4c0.4-0.1,1.1,0.1,1.2-0.5
							C158.3,153.5,157.6,153.5,157.1,153.5z"/>
					</g>
					<g>
						<path class="st1" d="M147,152.9c-0.4,1.7,0.1,3.3,0.9,5c0.4-1.3-0.3-2.4,0.1-3.4c0.1-0.2,0.1-0.6,0.4-0.6
							c0.3,0,0.5,0.3,0.6,0.5c0.2,0.6,0.4,1.3,0.6,1.9c0.1,0.2,0.2,0.5,0.5,0.4c0.3,0,0.3-0.3,0.3-0.5c0.1-0.9-0.2-1.6-0.8-2.3
							c-0.4-0.4-1.4-0.9-0.3-1.7c0.3,0,0.6,0,0.9,0.1c0.3,0.1,0.7,0.2,0.8-0.2c0.1-0.5-0.5-0.4-0.8-0.4c-0.5,0-1,0-1.4,0l0,0l0,0
							c-0.4,0-0.9-0.1-0.9-0.6s0.3-0.8,0.7-1c0.6-0.2,1.2-0.5,1.9-0.2c0.6,0.2,1.1,0,1.7-0.3c-0.2-0.3-0.5-0.3-0.7-0.3
							C147.4,149.5,147.7,149.7,147,152.9z"/>
					</g>
					<g>
						<path class="st1" d="M148.3,144.1c0,0.2,0.2,0.2,0.4,0.2c0.2-0.1,0.3-0.2,0.2-0.4c0-0.2-0.2-0.2-0.4-0.2
							C148.4,143.8,148.3,143.9,148.3,144.1z"/>
					</g>
					<g>
						<path class="st1" d="M106.5,139.3c-0.7-0.1-0.6,0.7-0.7,1.4c0.2,0.5,0,1.2,1,1.3c0.5,0.1,1.1-0.2,1-0.8
							C107.5,140.5,107.5,139.5,106.5,139.3z"/>
					</g>
					<g>
						<path class="st1" d="M154.2,159.5c-1.2,0.4-2.3,1.1-3,2.1c-0.3,0.4-0.1,0.6,0.6,0.6c1-0.5,2.1-1,2.9-2
							C155.1,159.7,154.7,159.3,154.2,159.5z"/>
					</g>
					<g>
						<path class="st1" d="M150.6,131.1c0-0.1,0.1-0.1,0.1-0.2c0.2-0.6,0-1.2-0.7-1.4s-1.1,0.1-1.3,0.7c-0.4,1.1-0.3,2.2-0.2,3.3
							c0.1,0.4,0.4,0.8,0.9,0.9c1.4,0.3,2.2,1.2,2.7,2.4c0,0.2-0.1,0.5,0.2,0.5c0.4,0,0.3-0.4,0.3-0.7l0,0c0.1,0,0.1,0,0.2,0
							c0.1,0.2,0.4,0.5,0.5,0.3c0.3-0.2,0-0.4-0.3-0.6l0,0l0,0c-0.6-0.6-1.3-1.2-1.9-1.9c-0.5-0.6-1.3-0.9-1.5-1.7
							C149.5,132,150.4,131.7,150.6,131.1z"/>
					</g>
					<g>
						<path class="st1" d="M169.3,54.5c0.3-0.1,0.9,0.2,0.9-0.3c0-0.4-0.5-0.4-0.8-0.5c-0.2-0.1-0.4-0.2-0.6-0.4
							c-0.2-0.2-0.3-0.8-0.7-0.5c-0.3,0.2-0.1,0.6-0.1,0.9C168,54.7,168.7,54.4,169.3,54.5z"/>
					</g>
					<g>
						<path class="st1" d="M170.7,50.8c0.3-0.1,0.8-0.2,0.6-0.5c-0.4-0.8-1.1-0.3-1.9-0.5C169.8,50.5,170,51,170.7,50.8z"/>
					</g>
					<g>
						<path class="st1" d="M166.3,51.7c0.9-0.6,1.9-0.3,3,0.1c-0.2-0.6-0.5-1-0.5-1.4c0-0.3-0.3-0.6-0.5-0.4
							c-0.7,0.8-1.3,0.1-1.9-0.1c-0.5-0.2-1-0.3-1.4,0.2c-0.3,0.4-0.3,0.9,0,1.3C165.3,51.8,165.9,51.9,166.3,51.7z"/>
					</g>
					<g>
						<path class="st1" d="M198.9,188.8c0.2,0.1,0.3,0.4,0.2,0.7c-0.1,0.2-0.3,0.6,0.1,0.6c0.2,0,0.5-0.3,0.7-0.6
							c0.5-0.8,0.9-1.5,1.9-2c0.3-0.1,0.6-0.8,0.8-1.3c0.2-0.6-0.4-0.1-0.6-0.1c-0.2-0.1-0.3-0.2-0.3-0.5s-0.1-0.5-0.5-0.3
							c-0.7,0.4-0.7,0-0.8-0.4c-0.1-0.8-0.2-1.6-1.1-1.9c0.2,0.5,0.3,1.1,0.5,1.6c0.2,0.8,0.2,1.7-0.7,2.8
							C198.5,188.2,198.3,188.6,198.9,188.8z"/>
					</g>
					<g>
						<path class="st1" d="M156.2,149c-0.7,0.1-0.6,0.7-0.7,1.3c0.1,0.2-0.2,0.8,0.3,0.7c0.6-0.1,0.7-0.8,0.7-1.3
							C156.6,149.4,156.6,149,156.2,149z"/>
					</g>
					<g>
						<path class="st1" d="M74.6,162.8c-1.4,0.5-1.8,1.5-1.2,3.1c0.2,0.7,0.7,1.6,0.4,2.1c-0.6,1.2,0.2,2.6,1.1,4.1
							c1,1.7,1.9,1.6,3,1.1c0.3-0.1,0.3-0.5,0.3-0.9c0.2-2.9-0.2-6.1,0.2-9c0.1-1-0.3-2.3-1.5-3.8C76.8,161.4,75.9,162.3,74.6,162.8
							z"/>
					</g>
					<g>
						<path class="st1" d="M69.1,144.2c1.4-0.9,2.4-2,3.3-3.4c1.5-2.2,2.3-4.8,3.2-7.5c-1.2,0.1-2.4,0.3-3.6,0.3
							c-1.7,0.1-3.6,0.5-5-1.2c-0.8-1-1.6-2-2.3-3c-0.5-0.8-1.1-1.5-1.7-2.2c0-0.8,0-1.6,0.1-2.4c-0.1,1.3-0.1,2.7-0.1,4
							c0,6.7,0.8,13.3,2.2,19.6C66,146.7,67.3,145.3,69.1,144.2z"/>
					</g>
					<g>
						<path class="st1" d="M143.4,160.1c0-0.2-0.1-0.3-0.4-0.3c-0.2,0-0.4,0.1-0.4,0.3s0.2,0.3,0.4,0.3
							C143.2,160.4,143.4,160.3,143.4,160.1z"/>
					</g>
					<g>
						<path class="st1" d="M133,152.9c-0.1,0-0.2,0-0.2,0c-1.2-0.3-2.1-1.1-2.6-2s-1.1-1.6-1.8-2.3c-1-1-2.1-1.9-3-3
							c-0.6-0.8-1.6-1-3-1.1c2.6,2.1,3.3,4.9,5.4,7c0.2,0.2,0.3,0.4,0.4,0.6c0.6,1.7,2,2.8,3.3,4c0.2,0.2,0.6,0.6,0.8,0.3
							c0.6-0.8,0.8-1.8,1.2-2.8C133.6,153.3,133.4,153,133,152.9z"/>
					</g>
					<g>
						<path class="st1" d="M166.3,196.7c0,0.2,0.1,0.3,0.3,0.3c0.1-0.1,0.3-0.2,0.4-0.4c0-0.3-0.1-0.4-0.3-0.4
							C166.5,196.2,166.3,196.4,166.3,196.7z"/>
					</g>
					<g>
						<path class="st1" d="M169.4,197.7c-0.5,0-1-0.1-1.5-0.1c-0.3,0.1-0.8,0-0.8,0.7c0,0.6,0.1,1.1,0.2,1.7c0.1,0.5,0.5,0.5,1,0.5
							c0.5-0.1,0.8-0.5,0.9-1c0.2-0.5,0.7-1.1,0.4-1.6C169.6,197.7,169.5,197.7,169.4,197.7z"/>
					</g>
					<g>
						<path class="st1" d="M146,160.5c0-0.4-0.6-0.4-1-0.5c-0.3,0-0.7,0.1-0.7,0.4c0,0.5,0.5,0.4,0.9,0.5
							C145.5,160.8,146,161,146,160.5z"/>
					</g>
					<g>
						<path class="st1" d="M133.4,157.5c-0.1,0.4,0.2,0.6,0.4,0.7c0.6,0.3,1.2,0.5,1.8,0.7c1.6,0.4,3.2,0.7,4.8,1
							c0.3,0.1,0.8,0.5,1,0.1c0.3-0.5-0.3-0.7-0.6-0.9c-1.9-1.5-4.6-0.6-6.5-1.8C133.8,157.3,133.5,157.2,133.4,157.5z"/>
					</g>
					<g>
						<path class="st1" d="M146.7,138.6c-0.5,0.6-1.2,1.1-1.1,2.2C146.4,140.1,146.8,139.5,146.7,138.6z"/>
					</g>
					<g>
						<path class="st1" d="M143.1,144.5c-0.2,0.1-0.3,0.3-0.4,0.4c-1.8,1.6-3.7,2.9-5.7,4.1c-0.5,0.3-0.6,0.6-0.5,1.2
							c0.6,3,2.7,4.7,6,4.7c1.1,0,1.5-0.4,1.3-1.4c-0.1-0.3-0.1-0.6,0.1-0.9c0.7-1,1.3-2,2-3c0.4-0.5,0.3-2-0.3-2.2
							c-1.2-0.4-0.6-0.8-0.1-1.3c0.3-0.2,0.5-0.5,0.8-0.7c0.4-0.3,0.4-0.5,0-0.9C144.3,142.9,145.1,142.8,143.1,144.5z"/>
					</g>
					<g>
						<path class="st1" d="M191.7,172.1c-0.2-0.6-0.7-0.9-1.4-1c-0.3,0-0.6,0.1-0.6,0.5c0,0.8,0.7,0.9,1.3,1.1
							C191.2,172.9,191.5,172.5,191.7,172.1z"/>
					</g>
					<g>
						<path class="st1" d="M190.8,198.1c0.9,0.4,1.8-0.2,2.4-1.6c0.7-1.7,2.3-2.8,3.4-4.3c0.5-0.6,1-1.2,0.8-1.6
							c-0.3-0.6-1,0.2-1.5,0.6c-0.2,0.1-0.4,0.3-0.4,0.5c-0.5,0.9-1.3,1.6-2.1,2.2c-1.4,1.2-2.6,2.5-3.7,4.1
							C190.1,197.9,190.5,198,190.8,198.1z"/>
					</g>
				</g>
			</g>
		</g>
		<g class="st2">
			<g>
				<path class="st3" d="M165.2,214.5c5.8-1,11.4-2.6,16.7-4.7l-16.5,2.7L165.2,214.5z"/>
				<path class="st3" d="M146.7,84.4l56.3,15l1.6,0.4l9.1-29.8c-1.4-1.5-2.9-3-4.4-4.4h0.1c-2.3-2.2-4.7-4.2-7.3-6.1H202
					c-14.5-10.9-32.6-17.3-52.1-17.3c-5.9,0-11.6,0.6-17.2,1.7l28.2,33.3L146.7,84.4z"/>
				<path class="st3" d="M224.2,153.8l-55.7,9.1l1-15.9l-42.9,41.8l10,11.1l14.5,16.1c4.8-0.1,9.5-0.5,14.1-1.3l0.1-2l16.5-2.7
					c32.2-12.8,54.9-44.1,54.9-80.8c0-2.6-0.1-5.1-0.3-7.7c-1,11.4-4.1,22.2-9.1,31.9L224.2,153.8z"/>
				<path class="st3" d="M84.8,177.3l2.5-5.5l23.6-51.2l12.6,9.7L113,71.4l-13.1,1.9L81,75.9c-4.9,6.4-9,13.4-12,21
					c0,0.1-0.1,0.2-0.1,0.3c-0.2,0.5-0.4,1-0.6,1.5c-0.1,0.3-0.2,0.5-0.3,0.8c-0.1,0.4-0.3,0.8-0.4,1.2c-0.1,0.4-0.3,0.8-0.4,1.2
					c-0.1,0.3-0.2,0.6-0.3,0.9c-0.2,0.6-0.4,1.2-0.5,1.7c0,0.1-0.1,0.3-0.1,0.4c-2.2,7.6-3.4,15.7-3.4,24.1
					c0,34.8,20.4,64.8,49.9,78.7C101.3,200,91.6,189.5,84.8,177.3z"/>
			</g>
		</g>
		<g>
			<path class="st4" d="M149.7,42.1c0.2,0,0.4,0,0.6,0c3,0,6,0.2,9,0.5l-4.9-5.8L149.7,42.1z"/>
			<path class="st5" d="M154.4,36.8l-10.7-12.6c-5-5.9-12.1-8.7-19.2-8.4c-6.2,0.3-12.3,2.9-16.8,8l-1.1,1.2L83.5,51.4l23.3,2.3
				c12.6-7.3,27.3-11.5,42.9-11.6L154.4,36.8z"/>
			<path class="st5" d="M227.8,168.3l13.1-2.1c7.6-1.2,13.7-5.9,17-12.1c3-5.5,3.8-12.1,1.7-18.5l-0.5-1.5l-10.7-33.4l-12.1,16.4
				c0.5,3.9,0.8,8,0.8,12.1C237.1,143.1,233.8,156.5,227.8,168.3z"/>
			<path class="st5" d="M74.2,171.1l-4.4,9.5c-3.2,7-2.7,14.7,0.5,20.9c2.9,5.5,7.9,9.9,14.4,11.8l1.6,0.5l33.7,9.8l-5.4-15.3
				C97.5,200.6,83.3,187.5,74.2,171.1z"/>
			<path class="st6" d="M235,57l-21.4-25.4l-9-10.7c-5-5.9-12.1-8.7-19.1-8.4l0,0l-60.9,3.2l0,0c7-0.3,14.2,2.5,19.2,8.4l10.7,12.6
				l4.9,5.8l31.5,37.3l-14.2,7.3L233,102l1.6,0.4L251,48.7L235,57z"/>
			<path class="st6" d="M257.9,154.1c-3.4,6.2-9.4,10.9-17,12.1l-13.1,2.1l-3.2,0.5l-55.7,9.1l1-15.9L127,203.8l10,11.1l27.6,30.5
				l1.1-17.9l32.8-5.3l13.8-2.3c7.6-1.2,13.6-5.9,17-12l0,0L257.9,154.1L257.9,154.1z"/>
			<path class="st6" d="M102.4,65.2l-13.1,1.9l-42.5,6L61,84l-13.9,30.2l-5.9,12.7c-3.2,7-2.7,14.6,0.5,20.8l0,0l28.7,53.8l0,0
				c-3.3-6.2-3.7-13.9-0.5-20.9l4.4-9.5l2.5-5.5l23.6-51.2l12.6,9.7L102.4,65.2z"/>
		</g>
	</g>
</g>
</svg>
