<?xml version="1.0" encoding="iso-8859-1"?>
<!-- Generator: Adobe Illustrator 19.0.0, SVG Export Plug-In . SVG Version: 6.00 Build 0)  -->
<svg version="1.1" id="Capa_1" xmlns="http://www.w3.org/2000/svg" xmlns:xlink="http://www.w3.org/1999/xlink" x="0px" y="0px"
	 viewBox="0 0 512 512" style="enable-background:new 0 0 512 512;" xml:space="preserve">
<path style="fill:#8CDC52;" d="M341.848,512H170.152c-8.355,0-15.128-6.773-15.128-15.128v-260.68
	c0-20.689,6.389-40.513,18.477-57.33c9.937-13.786,22.994-24.571,38.184-31.631V68.41c0-8.355,6.773-15.128,15.128-15.128h58.375
	c8.355,0,15.128,6.773,15.128,15.128v78.825c34.296,15.966,56.66,50.449,56.66,88.957v260.68
	C356.976,505.227,350.202,512,341.848,512z"/>
<path style="fill:#8F4F0B;" d="M285.188,83.538h-58.375c-8.355,0-15.128-6.773-15.128-15.128V15.128
	C211.685,6.773,218.459,0,226.814,0h58.375c8.355,0,15.128,6.773,15.128,15.128V68.41C300.317,76.765,293.543,83.538,285.188,83.538
	z"/>
<path style="fill:#EDF6FF;" d="M341.845,414.342H170.155c-8.355,0-15.128-6.773-15.128-15.128V272.137
	c0-8.355,6.773-15.128,15.128-15.128h171.689c8.355,0,15.128,6.773,15.128,15.128v127.077
	C356.973,407.569,350.199,414.342,341.845,414.342z"/>
<path style="fill:#5DC378;" d="M300.317,147.235V68.41c0-8.355-6.773-15.128-15.128-15.128h-29.191V512h85.851
	c8.355,0,15.128-6.773,15.128-15.128v-260.68C356.976,197.684,334.611,163.2,300.317,147.235z"/>
<path style="fill:#592B03;" d="M285.188,0h-29.191v83.538h29.191c8.355,0,15.128-6.773,15.128-15.128V15.128
	C300.317,6.773,293.543,0,285.188,0z"/>
<path style="fill:#D6E9FF;" d="M341.845,257.009h-85.848v157.334h85.848c8.355,0,15.128-6.773,15.128-15.128V272.137
	C356.973,263.782,350.199,257.009,341.845,257.009z"/>
<g>
</g>
<g>
</g>
<g>
</g>
<g>
</g>
<g>
</g>
<g>
</g>
<g>
</g>
<g>
</g>
<g>
</g>
<g>
</g>
<g>
</g>
<g>
</g>
<g>
</g>
<g>
</g>
<g>
</g>
</svg>
