<?xml version="1.0" encoding="iso-8859-1"?>
<!-- Generator: Adobe Illustrator 19.0.0, SVG Export Plug-In . SVG Version: 6.00 Build 0)  -->
<svg version="1.1" id="Capa_1" xmlns="http://www.w3.org/2000/svg" xmlns:xlink="http://www.w3.org/1999/xlink" x="0px" y="0px"
	 viewBox="0 0 512 512" style="enable-background:new 0 0 512 512;" xml:space="preserve">
<path style="fill:#9B9B9B;" d="M376.627,121.882h-66.781L186.535,72.558C156.694,60.622,137.412,32.141,137.412,0h30
	c0,19.802,11.88,37.35,30.265,44.703l117.946,47.179h61.004L376.627,121.882L376.627,121.882z"/>
<polygon style="fill:#E30020;" points="261,117.764 105.348,117.764 105.348,189 125.349,256 105.348,438.451 105.348,512 261,512 
	"/>
<polygon style="fill:#AA0018;" points="256,117.764 256,512 406.652,512 406.652,438.451 386.651,256 406.652,189 406.652,117.764 
	"/>
<path style="fill:#E5E5E5;" d="M105.348,91.882v30h301.305v-30H105.348z"/>
<rect x="256" y="91.88" style="fill:#CFCFCF;" width="150.65" height="30"/>
<path style="fill:#FFE7C3;" d="M105.348,189v249.451h301.305V189H105.348z"/>
<rect x="256" y="189" style="fill:#FFCF87;" width="150.65" height="249.45"/>
<rect x="241" y="213.77" style="fill:#00C47A;" width="30" height="42.893"/>
<path style="fill:#FC334F;" d="M336.556,256.198c-13.226-13.634-31.567-21.143-51.648-21.143c-10.105,0-19.964,1.792-28.907,5.224
	c-8.943-3.431-18.802-5.224-28.907-5.224c-20.081,0-38.423,7.509-51.648,21.143c-13.847,14.275-21.166,33.965-21.166,56.941
	c0,32.512,21.876,67.018,52.016,82.047c6.298,3.14,23.026,11.48,49.706,11.48c26.806,0,43.791-8.533,49.374-11.337
	c30.332-15.24,52.348-49.806,52.348-82.19C357.721,290.164,350.402,270.474,336.556,256.198z"/>
<path style="fill:#E30020;" d="M336.556,256.198c-13.226-13.634-31.567-21.143-51.648-21.143c-10.105,0-19.964,1.792-28.907,5.224
	c0,31.387,0,136.387,0,166.387c26.806,0,43.791-8.533,49.374-11.337c30.332-15.24,52.348-49.806,52.348-82.19
	C357.721,290.164,350.402,270.474,336.556,256.198z"/>
<g>
</g>
<g>
</g>
<g>
</g>
<g>
</g>
<g>
</g>
<g>
</g>
<g>
</g>
<g>
</g>
<g>
</g>
<g>
</g>
<g>
</g>
<g>
</g>
<g>
</g>
<g>
</g>
<g>
</g>
</svg>
